<svg preserveAspectRatio="xMidYMid meet" data-bbox="0 -0.002 206.992 170.002" viewBox="0 -0.002 206.992 170.002" height="226.666" width="275.989" xmlns="http://www.w3.org/2000/svg" data-type="color" role="presentation" aria-hidden="true" aria-label="">
    <g>
        <path fill="#3d4242" d="M79.783 90.182V67.767h-4.995v22.415h-2.471v.029H54.88V67.767h-9.936v54.824h9.936v-22.444h17.437v22.444h9.937V90.182z" data-color="1"></path>
        <path fill="#3d4242" d="M100.051 68.507a6.425 6.425 0 1 1-9.086 9.086 6.425 6.425 0 0 1 9.086-9.086" data-color="1"></path>
        <path fill="#3d4242" d="M100.477 84.519v38.072H90.54V84.519z" data-color="1"></path>
        <path fill="#3d4242" d="M160.848 95.179V81.758c0-7.924-6.446-14.371-14.368-14.371a14.35 14.35 0 0 0-9.433 3.545l-.379.33a16.4 16.4 0 0 0-11.437-4.637c-9.081 0-16.468 7.389-16.468 16.472v39.493h9.842V83.097c0-3.655 2.973-6.628 6.626-6.628s6.626 2.973 6.626 6.628v39.493h9.842V83.097c0-2.83-.718-5.495-1.979-7.823l.343-.324a9.32 9.32 0 0 1 6.417-2.555c5.163 0 9.362 4.2 9.362 9.363v13.421h-2.45v27.412h9.908V95.179z" data-color="1"></path>
        <path fill="#3d4242" d="M27.375 103.408v1.68c0 4.806-3.912 8.715-8.72 8.715s-8.72-3.909-8.72-8.715V90.229H7.371v-7.534c0-6.099 5.127-11.06 11.226-11.06s11.226 4.961 11.226 11.06v4.274h5.01v-4.274c0-8.861-7.374-16.07-16.235-16.07S2.363 73.834 2.363 82.695v7.534H0v14.859c0 10.281 8.369 18.644 18.655 18.644s18.655-8.363 18.655-18.644v-1.68z" data-color="1"></path>
        <path fill="#3d4242" d="M190.803 67.767h-19.218v54.823h9.937v-22.443h9.281c8.926 0 16.189-7.263 16.189-16.19s-7.263-16.189-16.189-16.189Zm0 27.412h-9.281V72.734h9.281c6.189 0 11.222 5.034 11.222 11.222s-5.034 11.223-11.222 11.223" data-color="1"></path>
        <path fill="#3d4242" d="M102.288 47.214c-1.556 0-2.883-.316-4.127-.894a18.55 18.55 0 0 0 1.746-7.867V18.644C99.906 8.367 91.536.005 81.261 0s-.003 0-.005 0h-.004C71.229.005 62.996 7.965 62.597 17.894v20.559c0 10.286 8.369 18.655 18.655 18.655 3.618 0 6.996-1.039 9.859-2.829a11.57 11.57 0 0 0 6.773 2.234h6.089v-9.299zm-21.036-.026c-4.816 0-8.73-3.918-8.73-8.735V18.644c0-4.806 3.914-8.715 8.719-8.715h.011c4.805 0 8.725 3.909 8.725 8.715v19.809c0 4.816-3.908 8.735-8.725 8.735" data-color="1"></path>
        <path fill="#3d4242" d="M136.241 1.143v37.321c0 4.806-3.912 8.715-8.72 8.715s-8.72-3.909-8.72-8.715v-9.91h-2.471V1.142h-4.995v27.412h-2.469v9.91c0 10.28 8.369 18.644 18.655 18.644s18.655-8.363 18.655-18.644V1.143z" data-color="1"></path>
        <path fill="#3d4242" d="M49.193 55.964h10.491L42.079 1.141H31.588l1.434 4.466-16.17 50.357h5.015l5.602-17.447H43.59zm-20.12-22.442 6.456-20.109 6.457 20.109z" data-color="1"></path>
        <path fill="#3d4242" d="M187.749 29.09V15.283C187.749 6.856 180.893 0 172.466 0s-15.282 6.856-15.282 15.283h5.009c0-5.665 4.609-10.273 10.273-10.273s10.273 4.608 10.273 10.273v8.021a18.75 18.75 0 0 0-11.445-3.888c-10.391 0-18.845 8.454-18.845 18.846s8.454 18.846 18.845 18.846 18.845-8.454 18.845-18.846a18.73 18.73 0 0 0-2.391-9.172Zm-16.455 18.117c-4.933 0-8.945-4.013-8.945-8.945s4.013-8.945 8.945-8.945 8.945 4.013 8.945 8.945-4.013 8.945-8.945 8.945" data-color="1"></path>
        <path fill="#ffffff" d="M101.938 134.424v6.287H78.332v-6.287z" data-color="2"></path>
        <path fill="#ffffff" d="M98.158 147.65v6.287H78.332v-6.287z" data-color="2"></path>
        <path fill="#ffffff" d="M84.619 135.014v18.923h-6.287v-18.923z" data-color="2"></path>
        <path fill="#ffffff" d="M125.391 169.231v-23.613a5.52 5.52 0 0 0-5.517-5.514 5.52 5.52 0 0 0-5.517 5.514v6.27h-1.563v17.343h-3.16v-17.343h-1.562v-6.27c0-6.504 5.295-11.796 11.803-11.796s11.803 5.291 11.803 11.796v23.613h-6.286Z" data-color="2"></path>
        <path fill="#ffffff" d="M101.938 166.283v3.16H79.896v-3.16z" data-color="2"></path>
        <path fill="#ffffff" d="M83.056 151.527v15.32h-3.16v-15.32z" data-color="2"></path>
        <path fill="#ffffff" d="M55.369 134.424v35.501h-6.287v-35.501z" data-color="2"></path>
        <path fill="#ffffff" d="m71.215 134.334 3.509.004-19.759 24.533-2.462-1.983z" data-color="2"></path>
        <path fill="#ffffff" d="m69.245 169.7-10.063-18.923 4.531-4.871 12.561 23.623z" data-color="2"></path>
        <path fill="#ffffff" d="M147.687 135.314V170h-3.16v-34.686z" data-color="2"></path>
        <path fill="#ffffff" d="M149.26 136.537v13.133h-6.305v-13.133z" data-color="2"></path>
        <path fill="#ffffff" d="M157.91 134.714v6.305h-23.606v-6.305z" data-color="2"></path>
    </g>
</svg>